<?xml version="1.0" standalone="no"?>
<!DOCTYPE svg PUBLIC "-//W3C//DTD SVG 20010904//EN"
 "http://www.w3.org/TR/2001/REC-SVG-20010904/DTD/svg10.dtd">
<svg version="1.0" xmlns="http://www.w3.org/2000/svg"
 width="640.000000pt" height="640.000000pt" viewBox="0 0 640.000000 640.000000"
 preserveAspectRatio="xMidYMid meet">

<g transform="translate(0.000000,640.000000) scale(0.100000,-0.100000)"
fill="#000000" stroke="none">
<path d="M0 3200 l0 -3200 3200 0 3200 0 0 3200 0 3200 -3200 0 -3200 0 0
-3200z m3255 1855 c62 -30 75 -116 25 -167 l-30 -30 0 -158 c0 -148 1 -158 19
-163 28 -7 61 -65 61 -106 0 -26 -9 -42 -40 -73 l-40 -40 0 -293 c0 -160 -3
-295 -7 -298 -3 -4 -17 3 -30 15 l-23 21 0 286 0 286 -22 10 c-13 6 -32 26
-42 46 -18 32 -18 42 -8 77 8 27 23 47 42 59 l30 17 0 150 0 149 -40 37 c-35
32 -40 42 -40 81 1 50 14 72 56 94 36 19 48 19 89 0z m-369 -203 c27 -21 44
-54 44 -82 0 -32 -27 -78 -50 -85 -17 -6 -20 -15 -20 -72 0 -58 3 -67 25 -85
34 -26 36 -99 4 -122 -25 -17 -20 -28 37 -79 26 -23 52 -37 68 -37 l26 0 0
139 c0 77 4 142 9 146 5 3 7 21 4 40 -5 30 -2 36 22 47 25 11 29 10 46 -11 22
-26 12 -55 -21 -66 -19 -6 -20 -15 -20 -148 l0 -142 38 -20 c27 -15 37 -27 37
-44 0 -34 -15 -35 -49 -6 -24 20 -40 25 -85 25 -56 0 -57 1 -130 69 -42 40
-71 74 -67 80 4 6 20 18 37 26 22 12 29 23 29 45 0 25 -4 29 -32 32 l-33 3 -3
87 c-2 76 -5 88 -22 93 -23 7 -50 54 -50 85 0 53 47 100 100 100 19 0 45 -8
56 -18z m944 -12 c11 -11 20 -30 20 -42 0 -25 -27 -58 -47 -58 -8 0 -36 -21
-63 -46 l-50 -47 0 -127 0 -127 -85 -74 c-58 -51 -83 -79 -80 -90 3 -9 3 -24
-1 -33 -5 -13 -23 -16 -105 -16 l-99 0 0 30 c0 27 3 30 31 30 l32 0 -5 140 -4
140 23 0 c23 0 23 0 23 -140 0 -127 2 -140 18 -140 9 1 59 41 110 89 l92 89
-1 103 0 104 -56 28 -56 27 -63 -56 c-66 -57 -97 -66 -102 -28 -2 15 7 27 30
41 18 11 56 40 84 66 l50 46 63 -41 62 -41 45 44 c39 38 43 47 38 75 -5 26 -1
35 21 53 34 26 50 26 75 1z m-1370 -169 c36 -36 47 -75 31 -115 -12 -30 -11
-32 53 -91 35 -33 184 -170 330 -305 l265 -245 1 -78 c0 -86 11 -116 59 -161
l31 -30 45 48 c45 47 45 47 45 121 l0 74 140 127 c101 93 139 133 137 148 -2
18 4 21 40 22 43 1 73 17 73 39 0 6 65 72 143 145 141 131 144 134 131 159 -8
14 -14 43 -14 64 0 52 52 107 101 107 73 0 128 -64 115 -134 -7 -39 -55 -85
-89 -87 -12 -1 -27 -2 -33 -3 -6 0 -88 -75 -181 -165 -94 -90 -175 -166 -180
-170 -6 -3 -15 -16 -22 -28 -6 -13 -21 -23 -32 -23 -13 0 -69 -46 -145 -117
l-124 -118 0 -76 0 -75 -65 -58 -65 -58 0 -64 0 -64 -30 0 -30 0 0 68 0 68
-55 54 -55 54 0 86 0 85 -172 160 c-518 481 -473 443 -519 443 -52 1 -87 24
-106 69 -32 79 18 153 104 153 36 0 50 -6 73 -29z m-240 -171 c109 -78 6 -252
-115 -194 -106 50 -71 214 46 214 25 0 52 -8 69 -20z m2147 0 c67 -40 63 -148
-7 -188 l-31 -17 2 -98 1 -99 -78 -73 -79 -72 0 -102 0 -102 -52 -50 c-34 -33
-60 -49 -77 -49 -39 0 -32 23 24 76 l50 47 0 117 c0 91 3 120 15 130 8 6 18 9
24 6 5 -4 32 17 60 46 l51 53 0 86 c0 84 -1 86 -31 108 -59 44 -62 121 -7 173
37 34 88 37 135 8z m-2432 -124 c57 -24 83 -105 50 -153 -14 -21 -10 -26 112
-141 71 -65 233 -218 362 -338 128 -120 255 -238 282 -262 41 -37 48 -48 46
-75 -2 -30 0 -32 33 -35 19 -2 51 -15 70 -30 40 -30 241 -211 252 -227 13 -18
8 -956 -5 -995 l-12 -35 -141 -5 -141 -5 -90 -93 c-86 -90 -90 -93 -129 -90
l-39 3 119 122 120 123 133 0 133 0 0 466 0 465 -86 82 c-48 45 -95 88 -106
95 -10 7 -16 18 -13 23 4 5 0 9 -9 9 -16 0 -18 2 -502 450 -181 168 -348 323
-371 343 l-42 38 -122 -118 c-67 -65 -134 -130 -147 -145 -30 -34 -64 -36 -92
-6 -24 26 -25 46 -4 77 14 20 23 23 59 18 l41 -6 107 107 c59 59 107 113 107
120 0 7 -13 12 -29 12 -39 0 -78 34 -90 78 -14 49 11 100 59 124 42 22 42 22
85 4z m506 -105 c22 -22 29 -39 29 -68 0 -21 -4 -44 -9 -52 -7 -10 -3 -23 10
-39 11 -15 19 -40 19 -63 0 -32 -3 -39 -20 -39 -15 0 -20 7 -20 28 0 35 -34
68 -65 64 -29 -4 -81 22 -95 47 -5 11 -10 38 -10 59 0 33 6 45 31 66 43 36 91
35 130 -3z m1669 -16 c35 -18 60 -62 60 -104 0 -33 -39 -86 -70 -96 -19 -6
-20 -16 -20 -138 l1 -132 -143 -137 -143 -137 358 -1 359 0 111 109 c99 97
110 111 97 125 -7 10 -16 34 -19 54 -5 28 -12 38 -27 40 -12 2 -54 32 -93 68
-60 54 -75 63 -91 54 -62 -33 -121 39 -73 92 24 27 53 22 92 -17 86 -83 172
-155 184 -155 8 0 26 9 41 21 29 23 91 28 124 10 28 -15 52 -62 52 -102 0 -34
-55 -99 -84 -99 -9 0 -71 -54 -138 -120 l-123 -121 83 -78 84 -78 28 29 c47
46 130 35 163 -22 27 -45 22 -97 -12 -130 -50 -50 -113 -52 -154 -4 -12 14
-74 76 -137 139 l-115 114 -227 1 -228 0 0 -52 c0 -29 4 -58 8 -65 4 -6 28
-13 52 -15 40 -3 45 -6 48 -30 4 -36 -31 -57 -57 -34 -25 23 -138 22 -163 -1
-33 -30 -76 18 -48 52 8 9 30 15 56 15 l44 0 0 65 0 65 -148 0 c-139 0 -150
-1 -168 -21 -10 -12 -94 -91 -186 -176 l-168 -155 0 -474 0 -474 145 0 145 0
0 -30 0 -30 -169 0 c-145 0 -170 2 -175 16 -3 9 -6 244 -6 524 l0 508 38 32
c20 18 73 67 118 109 44 42 136 126 204 186 68 61 186 166 262 234 l138 124 0
122 c0 119 -1 123 -25 139 -13 9 -29 33 -36 55 -9 31 -9 44 5 72 29 62 89 84
146 54z m-1432 -77 c19 -19 14 -56 -9 -68 -16 -9 -26 -8 -45 5 -27 17 -29 27
-14 56 12 21 50 25 68 7z m112 -238 c0 -77 1 -80 23 -80 26 0 111 -82 122
-118 9 -32 -19 -72 -50 -72 -22 0 -25 4 -25 37 0 26 -8 45 -27 65 -30 31 -43
35 -43 13 0 -12 -19 -15 -110 -15 l-110 0 0 125 0 125 110 0 110 0 0 -80z
m1115 50 c55 -58 32 -148 -44 -171 -35 -10 -45 -9 -85 11 -67 32 -116 22 -156
-33 -16 -22 -30 -49 -30 -60 0 -14 -6 -18 -27 -15 -23 2 -29 8 -31 36 -7 66
60 138 138 148 42 5 49 10 55 33 4 14 18 38 33 54 21 22 35 27 72 27 38 0 51
-5 75 -30z m-1405 -61 c14 -25 -10 -69 -37 -69 -22 0 -53 29 -53 50 0 41 70
57 90 19z m-467 -119 c37 -41 37 -89 -2 -132 l-29 -32 40 -53 40 -53 79 0 79
0 0 -35 0 -35 -234 0 -234 0 -35 -35 c-25 -25 -44 -35 -66 -35 -66 0 -114 47
-114 110 0 44 21 77 61 96 47 22 106 6 130 -37 l17 -29 123 0 c96 0 122 3 116
13 -20 33 -87 107 -103 112 -10 3 -23 17 -29 31 -26 55 -8 114 42 139 42 21
85 12 119 -25z m2458 -39 c73 -74 -6 -191 -102 -151 -30 13 -59 55 -59 85 0
28 30 76 53 85 43 17 78 11 108 -19z m-901 -114 c0 -29 -11 -44 -82 -109 -200
-183 -188 -168 -188 -230 0 -48 -3 -58 -25 -72 l-25 -16 0 94 0 95 128 117
c70 65 130 126 134 136 5 11 17 18 33 18 22 0 25 -4 25 -33z m-830 -22 c0 -34
-1 -35 -40 -35 -39 0 -40 1 -40 35 0 34 1 35 40 35 39 0 40 -1 40 -35z m267
-30 c14 -10 28 -34 36 -62 10 -38 25 -58 89 -116 l78 -70 0 -107 c0 -92 -3
-109 -17 -114 -25 -10 -33 12 -33 95 l0 77 -72 70 c-67 65 -74 69 -92 56 -83
-58 -191 56 -136 144 33 53 91 64 147 27z m-458 -216 c122 -114 161 -156 161
-174 0 -22 -3 -24 -32 -18 -20 4 -55 27 -88 58 -30 29 -93 89 -140 133 -75 72
-89 81 -122 82 -37 0 -38 1 -38 35 l0 35 49 0 48 0 162 -151z m-457 -16 c25
-23 22 -51 -7 -65 -19 -8 -28 -8 -40 2 -20 17 -19 57 3 69 23 14 23 14 44 -6z
m318 -23 c0 -19 -7 -20 -105 -20 l-105 0 0 -65 c0 -58 -2 -65 -20 -65 -18 0
-20 7 -20 85 l0 85 125 0 c118 0 125 -1 125 -20z m-805 -66 c47 -22 71 -76 58
-126 l-10 -37 82 -81 83 -80 196 0 196 0 0 -29 c0 -39 -11 -41 -220 -41 l-175
-1 -90 -89 c-54 -55 -86 -93 -79 -98 22 -15 44 -58 44 -85 0 -43 -25 -83 -66
-102 -70 -33 -146 15 -148 94 -1 44 24 87 60 103 13 6 70 57 125 112 l101 101
-83 77 c-74 69 -88 78 -123 78 -55 0 -106 52 -106 108 0 60 46 109 103 111 11
1 34 -6 52 -15z m330 -76 c32 -38 32 -78 0 -116 -30 -36 -69 -45 -112 -27 -37
16 -53 41 -53 87 0 44 23 76 63 86 46 12 74 4 102 -30z m525 -68 c0 -73 -2
-80 -20 -80 -18 0 -20 7 -20 58 0 31 -3 67 -6 80 -5 19 -2 22 20 22 26 0 26 0
26 -80z m1975 40 c12 -13 31 -20 54 -20 30 0 49 -12 116 -70 44 -39 83 -70 87
-70 4 0 19 11 34 25 20 18 38 25 68 25 104 0 152 -119 75 -184 -61 -52 -147
-25 -170 55 -8 24 -18 39 -28 39 -9 0 -51 32 -94 70 -83 75 -111 84 -142 50
-10 -11 -30 -20 -45 -20 -15 0 -35 9 -45 20 -15 17 -31 20 -103 20 -77 0 -86
-2 -103 -24 -28 -35 -57 -39 -85 -11 -29 29 -30 49 -4 75 21 21 65 27 75 10 3
-6 50 -10 106 -10 86 0 102 3 119 20 11 11 31 20 43 20 13 0 32 -9 42 -20z
m-501 -26 c22 -21 20 -50 -4 -74 -42 -42 -99 -10 -90 50 5 40 63 55 94 24z
m-1224 -74 c0 -57 3 -70 15 -70 53 0 105 -60 105 -121 0 -40 -56 -99 -94 -99
-23 0 -26 -4 -26 -35 0 -23 -5 -35 -14 -35 -7 0 -34 -18 -59 -40 -47 -42 -74
-50 -83 -25 -4 10 -20 15 -50 15 -31 0 -44 4 -44 14 0 10 22 16 78 21 117 10
154 59 97 127 -17 20 -25 42 -25 68 0 26 8 48 25 68 22 26 25 39 25 106 0 74
1 76 25 76 24 0 25 -2 25 -70z m-502 48 c19 -19 14 -56 -8 -63 -45 -14 -80 18
-60 56 12 21 50 25 68 7z m118 -42 c3 -7 36 -36 75 -65 58 -43 69 -57 69 -81
0 -41 -23 -50 -129 -50 -109 0 -121 4 -121 41 l0 29 93 0 92 1 -35 27 c-19 15
-48 39 -64 55 -16 15 -40 27 -52 27 -15 0 -24 6 -24 15 0 20 88 21 96 1z m884
-539 l0 -503 39 -17 38 -17 5 -83 c3 -45 4 -84 1 -87 -2 -2 -21 -4 -41 -5 -36
0 -37 -1 -42 -42 -5 -39 -19 -56 -179 -218 -138 -139 -177 -173 -187 -164 -8
6 -14 19 -14 28 0 9 74 90 165 181 l164 164 3 70 c3 64 5 71 25 74 14 2 23 -3
28 -17 11 -36 25 -23 25 24 l0 45 -60 0 c-53 0 -60 2 -60 20 0 11 9 25 20 32
20 13 20 24 20 493 0 419 2 483 16 503 8 12 19 22 25 22 5 0 9 -195 9 -503z
m633 329 c96 -41 134 -168 71 -237 -16 -18 -16 -21 5 -43 47 -50 40 -155 -14
-207 -43 -42 -84 -57 -158 -58 -108 -2 -181 49 -211 147 -7 21 -5 22 53 22 46
0 61 -4 61 -14 0 -8 14 -26 31 -40 37 -32 81 -34 127 -6 27 17 32 25 32 59 0
46 -26 71 -72 71 -26 0 -28 2 -28 45 0 43 1 45 30 45 17 0 39 9 50 20 48 48 4
120 -73 120 -47 0 -97 -29 -97 -56 0 -10 -14 -14 -55 -14 -51 0 -55 2 -55 24
0 37 41 89 90 114 52 26 161 30 213 8z m-1453 -51 c23 -19 47 -35 54 -35 7 0
18 -10 23 -23 9 -19 8 -26 -6 -34 -13 -8 -25 -3 -55 23 -25 21 -51 34 -74 36
-40 3 -54 27 -32 53 19 23 45 18 90 -20z m2522 -62 c22 -20 23 -51 1 -75 -20
-22 -66 -24 -83 -3 -10 12 -39 15 -146 15 -88 0 -135 -4 -140 -11 -4 -7 38
-55 104 -120 l111 -108 5 -108 c3 -59 6 -126 8 -148 3 -35 0 -41 -25 -53 -24
-12 -31 -11 -52 2 -35 23 -41 53 -16 87 17 23 21 43 21 109 l0 80 -132 130
-133 129 -163 1 -163 0 3 33 c2 26 7 32 28 34 54 3 412 1 541 -4 114 -3 138
-2 149 11 16 21 59 20 82 -1z m-2828 -119 c20 -20 26 -36 26 -68 -1 -44 -13
-66 -47 -84 -39 -21 -82 -14 -114 17 -38 39 -39 87 -3 130 35 42 98 44 138 5z
m2134 -217 c6 -5 12 -24 12 -43 0 -25 11 -46 43 -83 23 -27 51 -50 61 -50 30
-1 56 -31 56 -65 0 -24 14 -45 64 -96 35 -37 76 -71 90 -78 63 -29 32 -126
-36 -109 -33 9 -51 49 -36 82 10 22 6 29 -47 85 -35 36 -67 60 -79 60 -12 0
-32 7 -45 16 -19 14 -22 23 -18 54 4 35 1 42 -42 84 -26 26 -56 46 -68 46 -44
0 -69 56 -40 92 21 28 53 29 85 5z m315 -57 c35 -39 35 -79 1 -119 -38 -45
-78 -42 -133 8 -38 35 -42 43 -36 70 3 17 21 42 38 57 40 34 90 28 130 -16z
m-2083 -25 c19 -19 25 -36 25 -68 -1 -40 -6 -47 -133 -177 l-133 -135 82 -3
83 -3 118 117 c64 65 122 130 129 146 14 34 47 37 74 8 17 -18 17 -21 1 -45
-9 -14 -24 -25 -33 -25 -10 0 -74 -59 -143 -130 l-125 -130 -123 0 c-88 0
-129 -4 -145 -14 -47 -30 -98 25 -61 65 13 14 25 18 44 14 23 -5 39 7 128 99
100 102 116 126 88 126 -36 0 -60 95 -35 141 15 28 68 50 104 44 17 -3 41 -17
55 -30z m-464 -59 c24 -24 34 -43 34 -66 0 -38 -55 -100 -89 -100 -30 0 -78
26 -91 49 -25 49 -3 122 44 141 41 17 68 10 102 -24z m2169 -276 c82 -82 139
-131 157 -135 75 -17 103 -117 49 -177 -25 -28 -36 -33 -76 -33 -40 0 -51 5
-76 33 -36 40 -39 96 -8 136 l21 26 -114 110 -113 109 -167 1 c-93 0 -168 3
-168 8 0 4 -3 17 -6 30 l-6 22 188 0 189 0 130 -130z m-1045 0 c0 -20 -5 -30
-15 -30 -10 0 -15 -10 -15 -28 0 -21 -22 -49 -104 -131 -119 -119 -122 -120
-301 -121 l-110 0 -110 -110 c-60 -60 -111 -107 -114 -105 -2 3 -13 -2 -23
-12 -10 -9 -18 -11 -18 -5 0 6 5 14 10 17 6 4 9 13 8 20 -2 8 48 69 110 135
l114 120 145 0 146 0 93 92 c52 50 94 100 94 110 0 16 -9 18 -78 18 l-77 0
-90 -90 -90 -90 -74 0 -75 0 -142 -141 c-79 -78 -147 -138 -153 -134 -28 17
-4 53 126 185 l136 140 76 0 76 0 95 95 95 95 132 0 133 0 0 -30z m894 -109
c109 -111 137 -144 134 -163 -2 -12 -8 -23 -15 -23 -6 0 -72 60 -147 133
l-135 132 -250 0 -251 0 0 30 0 30 263 0 263 0 138 -139z m-1999 48 c4 -5 -1
-19 -11 -30 -15 -16 -31 -19 -111 -19 -102 0 -133 10 -133 40 0 19 7 20 124
20 77 0 127 -4 131 -11z m1929 -193 c150 -144 196 -194 194 -210 -8 -53 -40
-29 -258 189 l-215 216 41 -3 c39 -3 54 -15 238 -192z m-321 150 c15 -11 17
-31 17 -140 0 -122 1 -127 23 -135 58 -22 98 -96 83 -155 -16 -64 -92 -113
-158 -101 -29 5 -39 1 -75 -33 -33 -30 -43 -45 -43 -70 0 -25 -5 -33 -25 -38
-29 -7 -55 10 -55 36 0 10 17 30 38 46 44 34 92 82 92 92 -1 4 -7 18 -15 32
-8 14 -14 46 -15 71 0 52 23 90 71 114 l29 15 -4 97 c-3 75 -7 98 -20 105 -21
12 -20 54 2 67 23 14 33 13 55 -3z m-319 -122 c3 -9 6 -37 6 -62 0 -47 -1 -48
-125 -172 -69 -69 -125 -128 -125 -132 0 -4 9 -9 19 -13 11 -3 29 -25 40 -48
17 -36 19 -48 10 -81 -20 -71 -80 -105 -148 -83 -40 13 -81 67 -81 104 0 37
29 91 59 110 14 10 86 79 159 154 106 108 134 143 137 168 7 50 15 71 30 71 7
0 16 -7 19 -16z m-380 -116 c14 -23 -3 -52 -33 -56 -42 -6 -67 38 -39 66 17
17 58 11 72 -10z m-109 -308 c0 -29 -4 -36 -23 -38 -43 -6 -69 37 -40 66 7 7
24 12 38 10 21 -3 25 -8 25 -38z"/>
<path d="M3178 4999 c-45 -26 5 -104 51 -80 29 16 36 49 15 72 -19 21 -40 24
-66 8z"/>
<path d="M3186 4474 c-32 -31 -8 -84 38 -84 30 0 46 18 46 52 0 43 -53 64 -84
32z"/>
<path d="M2806 4808 c-19 -11 -21 -49 -4 -66 30 -30 75 0 64 42 -7 27 -35 38
-60 24z"/>
<path d="M2352 4634 c-32 -22 -30 -69 4 -91 24 -15 29 -15 53 -2 36 20 41 71
9 93 -28 20 -38 20 -66 0z"/>
<path d="M4028 4615 c-25 -55 39 -109 82 -70 22 20 26 65 8 83 -7 7 -27 12
-45 12 -26 0 -36 -6 -45 -25z"/>
<path d="M2117 4452 c-20 -22 -22 -73 -5 -90 18 -18 63 -14 81 6 24 26 21 68
-5 86 -29 21 -51 20 -71 -2z"/>
<path d="M4272 4454 c-42 -29 -18 -104 35 -104 49 0 72 76 31 104 -12 9 -27
16 -33 16 -6 0 -21 -7 -33 -16z"/>
<path d="M1854 4305 c-20 -30 -11 -58 22 -73 22 -10 28 -9 49 13 30 29 31 39
5 65 -27 27 -56 25 -76 -5z"/>
<path d="M2346 4234 c-19 -18 -21 -45 -4 -62 39 -39 100 17 63 58 -22 24 -38
25 -59 4z"/>
<path d="M4026 4194 c-32 -31 -11 -84 32 -84 35 0 52 16 52 50 0 14 -5 31 -12
38 -17 17 -54 15 -72 -4z"/>
<path d="M4765 3850 c-28 -31 -10 -74 32 -78 25 -3 35 2 49 22 15 24 15 28 0
51 -20 31 -56 33 -81 5z"/>
<path d="M4801 3301 c-26 -26 -27 -53 -3 -74 24 -22 55 -21 75 1 20 22 21 42
5 64 -22 28 -55 31 -77 9z"/>
<path d="M2600 3895 l0 -95 80 0 81 0 -3 93 -3 92 -77 3 -78 3 0 -96z"/>
<path d="M3795 3950 c-24 -26 -10 -73 22 -78 56 -8 86 51 41 82 -30 21 -41 20
-63 -4z"/>
<path d="M1927 3772 c-22 -24 -21 -35 2 -56 24 -22 49 -18 67 9 12 18 11 24
-2 43 -18 27 -45 28 -67 4z"/>
<path d="M1626 3544 c-24 -24 -20 -61 9 -80 23 -15 27 -15 50 0 46 30 26 96
-29 96 -8 0 -22 -7 -30 -16z"/>
<path d="M4397 3732 c-22 -24 -21 -35 3 -57 41 -37 97 24 58 63 -17 17 -42 15
-61 -6z"/>
<path d="M2935 3546 c-13 -19 -14 -29 -5 -45 16 -31 57 -28 72 5 11 23 10 29
-11 45 -30 25 -37 24 -56 -5z"/>
<path d="M1536 3218 c-9 -12 -16 -28 -16 -35 0 -20 30 -43 59 -43 34 0 51 17
51 50 0 14 -5 31 -12 38 -20 20 -65 14 -82 -10z"/>
<path d="M1567 2652 c-34 -37 -14 -92 33 -92 21 0 35 8 46 26 16 24 16 27 -3
52 -25 33 -54 39 -76 14z"/>
<path d="M1852 3178 c-18 -18 -14 -45 10 -62 37 -26 79 14 58 55 -12 21 -50
25 -68 7z"/>
<path d="M4787 3002 c-22 -24 -21 -55 1 -75 24 -22 45 -21 65 1 22 24 21 55
-1 75 -24 22 -45 21 -65 -1z"/>
<path d="M2702 2938 c-10 -13 -15 -34 -13 -55 0 -7 12 -20 25 -28 28 -19 58
-9 76 26 25 45 -55 96 -88 57z"/>
<path d="M1999 2599 c-16 -30 3 -69 34 -69 29 0 47 17 47 45 0 45 -60 63 -81
24z"/>
<path d="M4456 2348 c-34 -19 -16 -78 25 -78 35 0 60 39 40 64 -16 19 -45 25
-65 14z"/>
<path d="M2360 2300 c-15 -29 -3 -59 26 -66 30 -8 54 11 54 40 0 46 -59 64
-80 26z"/>
<path d="M1918 2259 c-45 -26 -5 -104 41 -80 36 20 36 62 0 81 -21 12 -20 12
-41 -1z"/>
<path d="M4260 1801 c-15 -29 -12 -46 9 -65 26 -24 62 -17 80 16 14 24 14 28
-3 47 -24 27 -72 28 -86 2z"/>
<path d="M3595 1579 c-51 -29 -60 -85 -20 -124 54 -55 140 -7 127 71 -7 44
-69 74 -107 53z"/>
<path d="M2993 1353 c-32 -28 -36 -56 -12 -86 25 -32 61 -35 89 -7 54 54 -20
143 -77 93z"/>
</g>
</svg>
